<svg xmlns="http://www.w3.org/2000/svg" viewBox="0 0 48 42" fill="none">
  <!-- ground line -->
  <line x1="3" y1="39.5" x2="45" y2="39.5" stroke="#a89070" stroke-width="0.6" opacity="0.4" />
  <!-- trunk -->
  <path d="M19 39 C 19.5 32, 21 26, 22 21 L 26 21 C 27 26, 28.5 32, 29 39 Z" fill="#6b4a2b" />
  <path d="M22 38 C 22.4 32, 23 26, 23.6 22" stroke="#8a6841" stroke-width="0.9" stroke-linecap="round" fill="none" opacity="0.65" />
  <!-- aerial roots -->
  <path d="M11 17 L 11 24" stroke="#7a5635" stroke-width="1" stroke-linecap="round" opacity="0.85" />
  <path d="M16 19 L 16 27" stroke="#7a5635" stroke-width="1" stroke-linecap="round" opacity="0.8" />
  <path d="M32 19 L 32 27" stroke="#7a5635" stroke-width="1" stroke-linecap="round" opacity="0.8" />
  <path d="M37 17 L 37 24" stroke="#7a5635" stroke-width="1" stroke-linecap="round" opacity="0.85" />
  <!-- canopy layers -->
  <ellipse cx="24" cy="15" rx="16" ry="6.5" fill="#3d7536" opacity="0.55" />
  <ellipse cx="9"  cy="15" rx="6"  ry="4.5" fill="#4d8a3d" />
  <ellipse cx="15" cy="11" rx="6.5" ry="4.8" fill="#5a9b46" />
  <ellipse cx="24" cy="9"  rx="7.5" ry="5"   fill="#6aa84e" />
  <ellipse cx="33" cy="11" rx="6.5" ry="4.8" fill="#5a9b46" />
  <ellipse cx="39" cy="15" rx="6"  ry="4.5" fill="#4d8a3d" />
  <ellipse cx="19" cy="16" rx="4"  ry="2.8" fill="#7ab656" opacity="0.85" />
  <ellipse cx="29" cy="16" rx="4"  ry="2.8" fill="#7ab656" opacity="0.85" />
  <ellipse cx="24" cy="6"  rx="3.5" ry="2.4" fill="#86c45f" opacity="0.95" />
</svg>
